# xmcd
#
# Track frame offsets:
#	150
#	10178
#	26386
#	37321
#	49231
#	60991
#	71289
#	81864
#	91667
#
# Disc length: 1371 seconds
#
# Revision: 1
# Processed by: cddbd v1.5.2PL0 Copyright (c) Steve Scherf et al.
# Submitted via: audiograbber 1.83.01
#
DISCID=65055909
DTITLE=Bob Wills - The Voice and Band of Bob Wills
DYEAR=1978
DGENRE=Western Swing
TTITLE0=Rosetta
TTITLE1=I'm Sittin' On Top Of The World
TTITLE2=Yearning
TTITLE3=My Mary
TTITLE4=Don't Let The Deal Go Down
TTITLE5=Will You Miss Me When I'm Gone
TTITLE6=Maiden's Prayer
TTITLE7=My Confession
TTITLE8=Boot Heel Rag
EXTD=This is Made from one of my LP's
EXTT0=
EXTT1=
EXTT2=
EXTT3=
EXTT4=
EXTT5=
EXTT6=
EXTT7=
EXTT8=
PLAYORDER=
